<svg width="329" height="40" viewBox="0 0 329 40" fill="none" xmlns="http://www.w3.org/2000/svg">
<path d="M15.6677 13.7348L4.68423 7.39996C4.32809 7.19548 3.93516 7.06315 3.52789 7.01053C3.12061 6.9579 2.70695 6.986 2.31053 7.09324C1.91412 7.20048 1.54271 7.38476 1.21751 7.63553C0.892313 7.88631 0.619687 8.19868 0.41521 8.55482C0.210733 8.91095 0.0784043 9.30388 0.0257803 9.71116C-0.0268437 10.1184 0.00127234 10.5321 0.108513 10.9285C0.215753 11.3249 0.40002 11.6963 0.650798 12.0215C0.901576 12.3467 1.21395 12.6194 1.57009 12.8238L12.5535 19.1587C13.2711 19.5729 14.1238 19.6852 14.9241 19.4707C15.7244 19.2563 16.4067 18.7327 16.8209 18.0151C17.2352 17.2976 17.3474 16.4449 17.1329 15.6446C16.9185 14.8443 16.3949 14.162 15.6774 13.7477L15.6677 13.7348Z" fill="white"/>
<path d="M37.5441 7.39992L26.5606 1.06827C25.8431 0.654026 24.9904 0.541799 24.1901 0.75626C23.3898 0.970721 22.7075 1.49432 22.2933 2.21185C21.879 2.92939 21.7668 3.78209 21.9812 4.58238C22.1957 5.38268 22.7193 6.06499 23.4368 6.47923L34.4203 12.8109C35.1378 13.2251 35.9905 13.3374 36.7908 13.1229C37.5911 12.9084 38.2734 12.3848 38.6877 11.6673C39.1019 10.9498 39.2141 10.0971 38.9997 9.29677C38.7852 8.49648 38.2616 7.81416 37.5441 7.39992Z" fill="white"/>
<path d="M33.9874 13.5636L28.8672 10.6077L23.4497 13.7348C23.0945 13.9399 22.7831 14.213 22.5333 14.5384C22.2836 14.8639 22.1004 15.2354 21.9942 15.6316C21.888 16.0279 21.8609 16.4412 21.9144 16.8479C21.9679 17.2547 22.1011 17.6469 22.3062 18.0022C22.5113 18.3575 22.7844 18.6689 23.1098 18.9186C23.4353 19.1684 23.8068 19.3516 24.203 19.4578C24.5993 19.564 25.0126 19.5911 25.4193 19.5375C25.8261 19.484 26.2183 19.3509 26.5736 19.1457L35.3926 14.0546C34.8977 13.9801 34.421 13.8135 33.9874 13.5636Z" fill="white"/>
<path d="M5.12364 6.64724L10.2503 9.59339L15.6678 6.46634C16.0535 6.27891 16.3966 6.01404 16.6755 5.68825C16.9544 5.36246 17.1633 4.98272 17.2891 4.57269C17.4149 4.16265 17.4549 3.73109 17.4066 3.30493C17.3583 2.87876 17.2228 2.46711 17.0084 2.09561C16.7941 1.7241 16.5056 1.40069 16.1608 1.14556C15.8161 0.890433 15.4225 0.709039 15.0046 0.612664C14.5866 0.516289 14.1533 0.507005 13.7317 0.585395C13.31 0.663785 12.909 0.82816 12.5536 1.06829L3.73456 6.15945C4.22366 6.23519 4.69457 6.40056 5.12364 6.64724Z" fill="white"/>
<path d="M51.4221 16.261C50.3046 15.6282 49.3801 14.7036 48.7473 13.5862C48.1033 12.4352 47.7652 11.1384 47.7652 9.81951C47.7652 8.50064 48.1033 7.20378 48.7473 6.05282C49.3801 4.93536 50.3046 4.01085 51.4221 3.37804C52.5458 2.7321 53.8216 2.39756 55.1177 2.40891C56.1263 2.40337 57.1265 2.592 58.0638 2.96453C58.9308 3.30083 59.7057 3.83775 60.3251 4.5313L59.117 5.73948C58.6567 5.1696 58.06 4.72515 57.3822 4.44731C56.6658 4.14931 55.8969 3.99774 55.1209 4.00151C54.1458 3.99823 53.1865 4.24753 52.3363 4.72512C51.4721 5.20649 50.7534 5.91173 50.2559 6.76675C49.7429 7.69899 49.4739 8.74576 49.4739 9.80981C49.4739 10.8739 49.7429 11.9206 50.2559 12.8529C50.7534 13.7079 51.4721 14.4131 52.3363 14.8945C53.4132 15.5352 54.6744 15.7947 55.9168 15.6312C57.1592 15.4677 58.3103 14.8907 59.1848 13.9932C59.5436 13.5984 59.8262 13.1406 60.0182 12.6429C60.2334 12.0922 60.361 11.5112 60.3962 10.9211H55.1629V9.35433H61.9791C62.0436 9.69409 62.0771 10.039 62.0793 10.3848C62.0804 11.2504 61.9397 12.1104 61.6625 12.9304C61.3917 13.746 60.9375 14.4886 60.3348 15.1012C59.0017 16.5162 57.2638 17.2236 55.1209 17.2236C53.8245 17.236 52.548 16.9038 51.4221 16.261Z" fill="white"/>
<path d="M65.7814 16.5485C65.0208 16.099 64.4001 15.4469 63.9885 14.6652C63.5661 13.8403 63.3458 12.9268 63.3458 12.0001C63.3458 11.0733 63.5661 10.1599 63.9885 9.33497C64.4001 8.55321 65.0208 7.90118 65.7814 7.45163C66.5752 7.00263 67.4716 6.76666 68.3835 6.76666C69.2955 6.76666 70.1919 7.00263 70.9856 7.45163C71.7506 7.89971 72.3759 8.55181 72.7914 9.33497C73.2139 10.1599 73.4341 11.0733 73.4341 12.0001C73.4341 12.9268 73.2139 13.8403 72.7914 14.6652C72.3759 15.4483 71.7506 16.1004 70.9856 16.5485C70.1919 16.9975 69.2955 17.2335 68.3835 17.2335C67.4716 17.2335 66.5752 16.9975 65.7814 16.5485ZM70.0456 15.2563C70.5674 14.9456 70.995 14.499 71.2828 13.9642C71.5886 13.3586 71.7479 12.6897 71.7479 12.0114C71.7479 11.333 71.5886 10.6641 71.2828 10.0586C70.9945 9.52415 70.567 9.07765 70.0456 8.76642C69.5424 8.46384 68.9658 8.30517 68.3787 8.3077C67.7989 8.307 67.2301 8.46568 66.7344 8.76642C66.2115 9.07585 65.7836 9.52279 65.4971 10.0586C65.1893 10.6635 65.0289 11.3326 65.0289 12.0114C65.0289 12.6901 65.1893 13.3592 65.4971 13.9642C65.7831 14.5004 66.2111 14.9474 66.7344 15.2563C67.2309 15.5547 67.7994 15.7122 68.3787 15.7118C68.966 15.7122 69.5423 15.5525 70.0456 15.2499V15.2563Z" fill="white"/>
<path d="M77.0233 16.5485C76.2612 16.0999 75.6392 15.4477 75.2272 14.6651C74.8048 13.8403 74.5845 12.9268 74.5845 12C74.5845 11.0733 74.8048 10.1598 75.2272 9.33493C75.6392 8.55235 76.2612 7.90013 77.0233 7.45159C77.8062 6.99192 78.6999 6.7551 79.6077 6.76674C80.5228 6.75376 81.4241 6.99053 82.2146 7.45159C82.9797 7.89967 83.6049 8.55177 84.0205 9.33493C84.4429 10.1598 84.6632 11.0733 84.6632 12C84.6632 12.9268 84.4429 13.8403 84.0205 14.6651C83.6049 15.4483 82.9797 16.1004 82.2146 16.5485C81.4241 17.0095 80.5228 17.2463 79.6077 17.2333C78.6999 17.245 77.8062 17.0081 77.0233 16.5485ZM81.2843 15.2563C81.8061 14.9456 82.2337 14.499 82.5215 13.9641C82.8273 13.3586 82.9866 12.6897 82.9866 12.0113C82.9866 11.333 82.8273 10.6641 82.5215 10.0585C82.2332 9.52411 81.8057 9.07761 81.2843 8.76638C80.7818 8.46153 80.2051 8.30062 79.6174 8.30119C79.0376 8.30049 78.4688 8.45917 77.9731 8.75991C77.451 9.07025 77.0232 9.51697 76.7358 10.0521C76.428 10.657 76.2676 11.3261 76.2676 12.0049C76.2676 12.6836 76.428 13.3527 76.7358 13.9577C77.0227 14.4932 77.4505 14.94 77.9731 15.2498C78.4696 15.5482 79.0381 15.7057 79.6174 15.7053C80.2041 15.7077 80.7803 15.5502 81.2843 15.2498V15.2563Z" fill="white"/>
<path d="M87.7838 20.6608C87.088 20.169 86.5567 19.4789 86.259 18.6806L87.8258 18.0345C88.0174 18.6088 88.3889 19.1061 88.8854 19.4526C89.416 19.8228 90.0508 20.0141 90.6976 19.9986C91.74 19.9986 92.5433 19.6949 93.1075 19.0876C93.6718 18.4803 93.9528 17.6339 93.9507 16.5485V15.4986H93.8634C93.5212 16.0236 93.051 16.4527 92.497 16.7455C91.8774 17.0839 91.1805 17.2554 90.4747 17.243C89.6522 17.246 88.8465 17.0104 88.1553 16.5646C87.431 16.1033 86.8424 15.4578 86.4496 14.6942C86.0333 13.86 85.8165 12.9404 85.8165 12.0081C85.8165 11.0758 86.0333 10.1562 86.4496 9.32202C86.8435 8.55923 87.4319 7.91401 88.1553 7.45161C88.8474 7.00819 89.6527 6.77378 90.4747 6.77646C91.1801 6.7646 91.8766 6.93483 92.497 7.2707C93.0511 7.5648 93.5213 7.99501 93.8634 8.52088H93.9442V7.09303H95.5594V16.5291C95.5857 17.488 95.3631 18.4374 94.9133 19.2847C94.5198 20.0091 93.9146 20.5963 93.1786 20.9677C92.4053 21.3476 91.5526 21.5381 90.6912 21.5233C89.6534 21.5645 88.6312 21.2612 87.7838 20.6608ZM92.3451 15.2563C92.8483 14.9408 93.256 14.4941 93.5242 13.9642C93.8335 13.3531 93.9867 12.675 93.97 11.9904C93.9861 11.3027 93.833 10.6216 93.5242 10.0069C93.2592 9.47476 92.8508 9.02722 92.3451 8.71471C91.8572 8.42299 91.2984 8.27099 90.7299 8.27536C90.16 8.27033 89.6002 8.42596 89.1147 8.7244C88.6108 9.04007 88.2022 9.4867 87.9324 10.0166C87.639 10.6332 87.4867 11.3075 87.4867 11.9904C87.4867 12.6732 87.639 13.3475 87.9324 13.9642C88.2008 14.495 88.6098 14.9419 89.1147 15.2563C89.5987 15.5501 90.1541 15.7054 90.7202 15.7054C91.2864 15.7054 91.8417 15.5501 92.3257 15.2563H92.3451Z" fill="white"/>
<path d="M97.8336 2.72229H99.5199V16.9168H97.8336V2.72229Z" fill="white"/>
<path d="M103.513 16.5582C102.767 16.1106 102.16 15.4655 101.759 14.6942C101.322 13.8641 101.1 12.938 101.113 12.0001C101.102 11.0902 101.306 10.1906 101.707 9.37374C102.084 8.59477 102.67 7.93597 103.4 7.47101C104.156 6.99535 105.035 6.75062 105.929 6.76678C106.808 6.74852 107.675 6.97201 108.436 7.41287C109.155 7.84123 109.73 8.47301 110.09 9.22837C110.488 10.0698 110.684 10.9921 110.665 11.9226C110.671 12.0562 110.658 12.1899 110.626 12.3199H102.828C102.833 12.9815 103.019 13.6293 103.364 14.1935C103.668 14.6778 104.097 15.0716 104.605 15.3339C105.079 15.58 105.605 15.7085 106.139 15.7086C107.384 15.7086 108.342 15.1013 109.014 13.8866L110.5 14.6006C110.089 15.378 109.485 16.0366 108.746 16.513C107.954 16.9784 107.054 17.2279 106.136 17.2364C105.217 17.2449 104.313 17.0121 103.513 16.5614V16.5582ZM108.895 10.9082C108.867 10.4945 108.757 10.0904 108.572 9.7194C108.348 9.29958 108.012 8.94968 107.602 8.70827C107.088 8.41178 106.5 8.26727 105.906 8.29153C105.193 8.27615 104.501 8.53122 103.968 9.00547C103.416 9.50238 103.052 10.1743 102.938 10.9082H108.895Z" fill="white"/>
<path d="M117.122 2.72225H121.425C122.75 2.69141 124.061 3.00179 125.231 3.62355C126.289 4.20089 127.156 5.07283 127.728 6.13358C128.302 7.27763 128.6 8.53974 128.6 9.8195C128.6 11.0993 128.302 12.3614 127.728 13.5054C127.156 14.5662 126.289 15.4381 125.231 16.0155C124.06 16.6361 122.75 16.9464 121.425 16.9167H117.122V2.72225ZM121.425 15.3209C123.103 15.3209 124.431 14.8385 125.409 13.8737C126.386 12.9089 126.875 11.5607 126.875 9.82918C126.875 8.10629 126.386 6.75814 125.409 5.7847C124.431 4.81127 123.103 4.32885 121.425 4.33746H118.809V15.3209H121.425Z" fill="white"/>
<path d="M132.412 16.5582C131.667 16.1106 131.06 15.4655 130.658 14.6942C130.221 13.8641 129.999 12.938 130.012 12.0001C130.002 11.0902 130.205 10.1906 130.606 9.37374C130.984 8.59543 131.57 7.93688 132.299 7.47101C133.056 6.99535 133.935 6.75062 134.828 6.76678C135.707 6.74852 136.575 6.97201 137.335 7.41287C138.055 7.8397 138.631 8.47191 138.989 9.22837C139.387 10.0698 139.584 10.9921 139.564 11.9226C139.57 12.0562 139.557 12.1899 139.526 12.3199H131.727C131.731 12.9818 131.917 13.6299 132.264 14.1935C132.567 14.677 132.994 15.0706 133.501 15.3339C133.976 15.5797 134.503 15.7082 135.038 15.7086C136.279 15.7086 137.237 15.1013 137.914 13.8866L139.4 14.6006C138.989 15.378 138.385 16.0366 137.645 16.513C136.854 16.9784 135.954 17.2279 135.035 17.2364C134.117 17.2449 133.212 17.0121 132.412 16.5614V16.5582ZM137.797 10.9082C137.769 10.4945 137.659 10.0904 137.474 9.7194C137.25 9.29958 136.915 8.94968 136.505 8.70827C135.991 8.41178 135.402 8.26727 134.809 8.29153C134.096 8.27615 133.404 8.53122 132.871 9.00547C132.319 9.50238 131.955 10.1743 131.84 10.9082H137.797Z" fill="white"/>
<path d="M139.975 7.08331H141.797L144.811 14.9333H144.849L147.902 7.08331H149.689L145.663 16.9167H143.958L139.975 7.08331Z" fill="white"/>
<path d="M152.767 16.5582C152.023 16.1087 151.417 15.4641 151.013 14.6942C150.578 13.8636 150.356 12.9378 150.367 12.0001C150.357 11.0902 150.56 10.1906 150.961 9.37371C151.34 8.59518 151.927 7.93666 152.657 7.47099C153.413 6.99576 154.291 6.75104 155.184 6.76676C156.063 6.74816 156.93 6.97168 157.69 7.41284C158.41 7.84102 158.987 8.47275 159.348 9.22834C159.744 10.0703 159.941 10.9922 159.923 11.9225C159.929 12.0563 159.915 12.1904 159.881 12.3199H152.086C152.088 12.9814 152.273 13.6296 152.619 14.1935C152.924 14.6767 153.352 15.0702 153.859 15.3339C154.333 15.5796 154.859 15.7081 155.394 15.7086C156.638 15.7086 157.597 15.1013 158.269 13.8866L159.758 14.6005C159.344 15.3772 158.739 16.0354 158 16.5129C157.209 16.9784 156.309 17.2278 155.39 17.2363C154.472 17.2448 153.567 17.0121 152.767 16.5614V16.5582ZM158.149 10.9082C158.121 10.4945 158.011 10.0904 157.826 9.71937C157.604 9.29814 157.268 8.94777 156.857 8.70825C156.344 8.41185 155.756 8.26733 155.164 8.29151C154.451 8.27548 153.758 8.53063 153.226 9.00544C152.674 9.50236 152.31 10.1743 152.195 10.9082H158.149Z" fill="white"/>
<path d="M161.638 2.72229H163.318V16.9168H161.638V2.72229Z" fill="white"/>
<path d="M167.369 16.5485C166.609 16.099 165.989 15.4469 165.579 14.6651C165.157 13.8403 164.936 12.9268 164.936 12C164.936 11.0733 165.157 10.1598 165.579 9.33493C165.991 8.55235 166.613 7.90013 167.375 7.45159C168.158 6.99192 169.052 6.7551 169.959 6.76674C170.875 6.75376 171.776 6.99053 172.566 7.45159C173.331 7.89967 173.957 8.55177 174.372 9.33493C174.795 10.1598 175.015 11.0733 175.015 12C175.015 12.9268 174.795 13.8403 174.372 14.6651C173.957 15.4483 173.331 16.1004 172.566 16.5485C171.776 17.0095 170.875 17.2463 169.959 17.2333C169.049 17.2462 168.153 17.0093 167.369 16.5485ZM171.63 15.2563C172.151 14.9456 172.579 14.499 172.867 13.9641C173.173 13.3586 173.332 12.6897 173.332 12.0113C173.332 11.333 173.173 10.6641 172.867 10.0585C172.578 9.52411 172.151 9.07761 171.63 8.76638C171.126 8.4638 170.55 8.30513 169.963 8.30766C169.383 8.30696 168.814 8.46564 168.318 8.76638C167.797 9.07761 167.369 9.52411 167.081 10.0585C166.773 10.6635 166.613 11.3326 166.613 12.0113C166.613 12.6901 166.773 13.3592 167.081 13.9641C167.369 14.499 167.797 14.9456 168.318 15.2563C168.815 15.5547 169.383 15.7122 169.963 15.7118C170.55 15.7122 171.126 15.5525 171.63 15.2498V15.2563Z" fill="white"/>
<path d="M176.562 7.08332H178.178V8.53057H178.255C178.599 8.00404 179.069 7.57114 179.622 7.27069C180.254 6.92562 180.966 6.7519 181.686 6.76675C182.515 6.76302 183.328 7.00099 184.025 7.4516C184.746 7.91626 185.334 8.56236 185.727 9.32524C186.145 10.1548 186.363 11.071 186.363 12C186.363 12.9291 186.145 13.8452 185.727 14.6748C185.334 15.4377 184.746 16.0838 184.025 16.5485C183.328 16.9991 182.515 17.2371 181.686 17.2333C180.962 17.2478 180.247 17.073 179.612 16.7262C179.051 16.4261 178.582 15.9795 178.255 15.434H178.178L178.255 16.8037V21.1841H176.562V7.08332ZM183.023 15.2498C183.529 14.9348 183.94 14.4882 184.212 13.9577C184.505 13.3485 184.658 12.681 184.658 12.0049C184.658 11.3287 184.505 10.6613 184.212 10.0521C183.94 9.52195 183.529 9.07544 183.023 8.75991C182.539 8.4566 181.979 8.29748 181.408 8.3012C180.838 8.29721 180.279 8.45276 179.793 8.75023C179.284 9.06248 178.871 9.50977 178.601 10.0424C178.309 10.6573 178.158 11.3293 178.158 12.0097C178.158 12.6902 178.309 13.3622 178.601 13.9771C178.87 14.5103 179.283 14.9578 179.793 15.2692C180.28 15.5643 180.839 15.7186 181.408 15.715C181.98 15.7154 182.539 15.5541 183.023 15.2498Z" fill="white"/>
<path d="M190.269 16.5582C189.525 16.1087 188.919 15.4641 188.515 14.6942C188.08 13.8636 187.858 12.9378 187.869 12.0001C187.859 11.0902 188.062 10.1906 188.463 9.37371C188.842 8.59518 189.429 7.93666 190.159 7.47099C190.915 6.99576 191.793 6.75104 192.686 6.76676C193.565 6.74816 194.432 6.97168 195.192 7.41284C195.912 7.84102 196.489 8.47275 196.85 9.22834C197.246 10.0703 197.442 10.9922 197.425 11.9225C197.431 12.0563 197.417 12.1904 197.383 12.3199H189.575C189.577 12.9814 189.762 13.6296 190.108 14.1935C190.413 14.6767 190.841 15.0702 191.348 15.3339C191.822 15.5793 192.349 15.7078 192.883 15.7086C194.127 15.7086 195.086 15.1013 195.758 13.8866L197.247 14.6005C196.834 15.3768 196.231 16.035 195.493 16.5129C194.7 16.9784 193.8 17.2278 192.881 17.2363C191.962 17.2448 191.057 17.0121 190.256 16.5614L190.269 16.5582ZM195.654 10.9082C195.626 10.4945 195.516 10.0904 195.331 9.71937C195.109 9.29814 194.774 8.94777 194.362 8.70825C193.849 8.41185 193.262 8.26733 192.669 8.29151C191.962 8.27958 191.276 8.53446 190.747 9.00544C190.195 9.50236 189.831 10.1743 189.717 10.9082H195.654Z" fill="white"/>
<path d="M199.14 7.08334H200.755V8.69855H200.836C201.046 8.12463 201.449 7.6416 201.976 7.33208C202.48 6.98375 203.076 6.79061 203.688 6.77646C204.08 6.77265 204.47 6.8394 204.838 6.97351V8.77931C204.409 8.56333 203.932 8.46101 203.452 8.48212C202.99 8.48255 202.539 8.62461 202.16 8.88915C201.752 9.16323 201.419 9.53529 201.191 9.97134C200.954 10.4247 200.832 10.9295 200.836 11.4412V16.9329H199.15L199.14 7.08334Z" fill="white"/>
<path d="M212.213 16.7875C211.539 16.4895 210.937 16.0487 210.45 15.4954C209.926 14.8931 209.549 14.1777 209.348 13.4053L210.963 12.7592C211.164 13.5616 211.599 14.286 212.213 14.8396C212.791 15.3704 213.548 15.6615 214.333 15.6536C215.089 15.6779 215.831 15.4431 216.436 14.9882C216.713 14.7713 216.933 14.4905 217.078 14.1698C217.222 13.849 217.287 13.498 217.266 13.1468C217.274 12.8378 217.213 12.5309 217.088 12.2483C216.962 11.9656 216.776 11.7142 216.542 11.5122C215.836 10.9657 215.032 10.558 214.174 10.3105L213.279 9.98747C212.374 9.68774 211.538 9.20873 210.821 8.57901C210.498 8.26828 210.246 7.89154 210.082 7.47452C209.918 7.05751 209.847 6.61004 209.871 6.16266C209.868 5.49704 210.061 4.84528 210.427 4.28901C210.808 3.70311 211.338 3.22836 211.961 2.91285C212.645 2.56091 213.405 2.38335 214.174 2.39597C214.916 2.37942 215.651 2.53535 216.323 2.85147C216.884 3.1148 217.384 3.49344 217.789 3.96274C218.12 4.34022 218.372 4.77938 218.532 5.25491L216.969 5.92684C216.79 5.34477 216.421 4.83926 215.922 4.49091C215.423 4.14256 214.821 3.97142 214.213 4.00473C213.539 3.98712 212.881 4.20407 212.349 4.6185C212.108 4.79729 211.912 5.03066 211.777 5.29959C211.643 5.56851 211.575 5.86536 211.577 6.16589C211.57 6.42695 211.625 6.68593 211.737 6.92172C211.85 7.1575 212.016 7.36342 212.223 7.52267C212.826 7.95373 213.496 8.28127 214.207 8.4918L215.118 8.81484C216.162 9.15807 217.123 9.71472 217.941 10.4494C218.288 10.7984 218.558 11.2161 218.734 11.6756C218.909 12.1352 218.987 12.6264 218.962 13.1178C218.99 13.9406 218.742 14.7492 218.258 15.4146C217.804 16.0261 217.19 16.5001 216.484 16.7843C215.78 17.0735 215.026 17.2217 214.265 17.2204C213.558 17.2218 212.859 17.0743 212.213 16.7875Z" fill="white"/>
<path d="M223.08 17.0233C222.76 16.8997 222.467 16.7142 222.218 16.4774C221.957 16.2267 221.757 15.9195 221.633 15.5794C221.5 15.1864 221.437 14.7731 221.446 14.3582V8.62424H219.701V7.09626H221.446V4.16302H223.113V7.09626H225.529V8.62424H223.113V13.9771C223.073 14.4206 223.187 14.8644 223.436 15.2337C223.559 15.3859 223.717 15.5059 223.896 15.5836C224.076 15.6612 224.271 15.6941 224.466 15.6795C224.842 15.6881 225.212 15.5919 225.536 15.4017V17.0169C225.34 17.0927 225.138 17.149 224.932 17.1849C224.679 17.2243 224.424 17.2416 224.169 17.2365C223.796 17.236 223.426 17.1636 223.08 17.0233Z" fill="white"/>
<path d="M228.149 16.1834C227.522 15.4824 227.206 14.5101 227.206 13.2761V7.08331H228.895V12.9918C228.895 14.8008 229.708 15.7053 231.334 15.7053C231.856 15.7113 232.366 15.5518 232.791 15.2498C233.22 14.9466 233.561 14.5368 233.783 14.061C234.012 13.5774 234.13 13.0487 234.129 12.5137V7.08331H235.792V16.9167H234.206V15.4469H234.129C233.809 15.979 233.354 16.4171 232.811 16.7164C232.238 17.0575 231.584 17.2362 230.918 17.2333C229.7 17.2333 228.776 16.8812 228.149 16.1834Z" fill="white"/>
<path d="M239.753 16.5582C239.029 16.0956 238.442 15.4489 238.05 14.6846C237.632 13.851 237.414 12.9312 237.414 11.9985C237.414 11.0657 237.632 10.1459 238.05 9.31237C238.442 8.54918 239.03 7.90373 239.753 7.44196C240.453 6.99705 241.265 6.76268 242.095 6.76679C242.814 6.7556 243.523 6.92911 244.156 7.27074C244.714 7.56392 245.185 7.99834 245.522 8.53061H245.603L245.522 7.18351V2.72229H247.189V16.9168H245.603V15.4469H245.522C245.193 15.9943 244.721 16.4412 244.156 16.7391C243.524 17.0834 242.814 17.2581 242.095 17.2463C241.264 17.2465 240.451 17.0077 239.753 16.5582ZM243.952 15.266C244.462 14.9546 244.875 14.5071 245.144 13.9739C245.438 13.3595 245.59 12.6873 245.59 12.0065C245.59 11.3257 245.438 10.6535 245.144 10.0392C244.874 9.50657 244.461 9.05929 243.952 8.74704C243.466 8.44957 242.907 8.29402 242.337 8.29801C241.766 8.29483 241.206 8.4539 240.722 8.75672C240.216 9.07225 239.805 9.51876 239.533 10.0489C239.24 10.6581 239.087 11.3255 239.087 12.0017C239.087 12.6779 239.24 13.3453 239.533 13.9545C239.805 14.485 240.216 14.9316 240.722 15.2467C241.207 15.547 241.767 15.7049 242.337 15.7021C242.91 15.7091 243.474 15.5558 243.965 15.2596L243.952 15.266Z" fill="white"/>
<path d="M251.201 16.5582C250.456 16.1106 249.849 15.4655 249.447 14.6942C249.011 13.8641 248.789 12.938 248.801 12.0001C248.791 11.0902 248.995 10.1906 249.396 9.37374C249.773 8.59543 250.359 7.93688 251.088 7.47101C251.845 6.99535 252.724 6.75062 253.618 6.76678C254.497 6.74852 255.364 6.97201 256.125 7.41287C256.843 7.84123 257.419 8.47301 257.779 9.22837C258.176 10.0698 258.373 10.9921 258.354 11.9226C258.359 12.0562 258.346 12.1899 258.315 12.3199H250.504C250.509 12.9815 250.694 13.6293 251.04 14.1935C251.344 14.6778 251.772 15.0716 252.28 15.3339C252.754 15.58 253.281 15.7085 253.815 15.7086C255.057 15.7086 256.016 15.1013 256.69 13.8866L258.176 14.6006C257.765 15.378 257.161 16.0366 256.422 16.513C255.63 16.9784 254.73 17.2279 253.812 17.2364C252.893 17.2449 251.989 17.0121 251.188 16.5614L251.201 16.5582ZM256.583 10.9082C256.555 10.4945 256.445 10.0904 256.26 9.7194C256.036 9.29958 255.701 8.94968 255.291 8.70827C254.777 8.41178 254.188 8.26727 253.595 8.29153C252.882 8.27615 252.19 8.53122 251.657 9.00547C251.105 9.50238 250.741 10.1743 250.626 10.9082H256.583Z" fill="white"/>
<path d="M260.072 7.08331H261.687V8.54994H261.765C262.072 8.01781 262.519 7.57987 263.057 7.28359C263.633 6.94366 264.291 6.76514 264.96 6.76673C266.165 6.76673 267.079 7.11885 267.706 7.81662C268.332 8.51439 268.649 9.47707 268.649 10.6917V16.9167H266.982V10.9501C266.982 9.17987 266.156 8.29364 264.504 8.29149C263.992 8.28565 263.492 8.44668 263.08 8.75022C262.659 9.05564 262.325 9.46534 262.111 9.93901C261.88 10.4209 261.76 10.9487 261.762 11.4831V16.9167H260.079L260.072 7.08331Z" fill="white"/>
<path d="M273.046 17.0233C272.724 16.9012 272.431 16.7155 272.183 16.4774C271.922 16.2267 271.722 15.9195 271.598 15.5794C271.464 15.1866 271.399 14.7733 271.408 14.3582V8.62424H269.663V7.09626H271.408V4.16302H273.075V7.09626H275.491V8.62424H273.075V13.9771C273.037 14.4205 273.15 14.8636 273.398 15.2337C273.521 15.3857 273.679 15.5056 273.858 15.5832C274.038 15.6608 274.233 15.6939 274.428 15.6795C274.804 15.6877 275.176 15.5915 275.501 15.4017V17.0169C275.304 17.0928 275.101 17.1491 274.893 17.1849C274.641 17.2243 274.386 17.2416 274.131 17.2365C273.759 17.2356 273.39 17.1632 273.046 17.0233Z" fill="white"/>
<path d="M284.51 16.261C283.401 15.6279 282.486 14.7028 281.865 13.5862C281.233 12.4312 280.902 11.1359 280.902 9.81952C280.902 8.5031 281.233 7.20781 281.865 6.05284C282.486 4.93622 283.401 4.01113 284.51 3.37805C285.644 2.72771 286.931 2.39306 288.238 2.40893C289.24 2.39762 290.232 2.60372 291.146 3.01301C292.016 3.41278 292.788 3.99829 293.407 4.72837L292.218 5.89778C291.744 5.29244 291.137 4.80397 290.445 4.46994C289.744 4.15659 288.983 4.00108 288.216 4.01444C287.239 4.01474 286.278 4.26733 285.428 4.74775C284.571 5.22941 283.862 5.93521 283.377 6.78938C282.877 7.72578 282.615 8.77093 282.615 9.83244C282.615 10.8939 282.877 11.9391 283.377 12.8755C283.862 13.7297 284.571 14.4355 285.428 14.9171C286.288 15.399 287.259 15.6484 288.245 15.6407C289.091 15.6444 289.927 15.4551 290.69 15.0874C291.452 14.7196 292.121 14.1831 292.645 13.5184L293.853 14.7072C293.194 15.4976 292.368 16.1311 291.433 16.5614C290.338 17.0573 289.142 17.2896 287.941 17.2397C286.74 17.1898 285.567 16.859 284.517 16.2739L284.51 16.261Z" fill="white"/>
<path d="M295.491 2.72229H297.177V16.9168H295.491V2.72229Z" fill="white"/>
<path d="M300.288 16.1834C299.661 15.4835 299.348 14.5144 299.348 13.2761V7.08331H301.034V12.9918C301.034 14.8008 301.846 15.7053 303.47 15.7053C303.991 15.7117 304.501 15.5522 304.926 15.2498C305.355 14.9466 305.697 14.5368 305.918 14.061C306.149 13.5779 306.267 13.0489 306.264 12.5137V7.08331H307.931V16.9167H306.345V15.4469H306.264C305.944 15.979 305.49 16.4171 304.946 16.7164C304.374 17.0575 303.719 17.2362 303.053 17.2333C301.848 17.2333 300.934 16.8812 300.288 16.1834Z" fill="white"/>
<path d="M313.261 16.7262C312.7 16.4262 312.231 15.9796 311.904 15.434H311.823V16.9039H310.208V2.72229H311.917V7.18351L311.836 8.53061H311.917C312.261 8.00408 312.731 7.57118 313.284 7.27074C313.915 6.92565 314.625 6.7519 315.345 6.76679C316.174 6.7625 316.987 7.00052 317.683 7.45164C318.406 7.91622 318.994 8.56227 319.389 9.32528C319.807 10.1549 320.025 11.071 320.025 12.0001C320.025 12.9292 319.807 13.8453 319.389 14.6749C318.994 15.4379 318.406 16.084 317.683 16.5485C316.987 16.9996 316.174 17.2377 315.345 17.2334C314.618 17.2502 313.899 17.0753 313.261 16.7262ZM316.692 15.2499C317.198 14.9349 317.609 14.4882 317.881 13.9577C318.174 13.3485 318.326 12.6811 318.326 12.0049C318.326 11.3288 318.174 10.6613 317.881 10.0521C317.608 9.522 317.197 9.07548 316.692 8.75996C316.208 8.45714 315.648 8.29806 315.077 8.30124C314.507 8.29828 313.948 8.45375 313.461 8.75028C312.953 9.06298 312.542 9.51023 312.272 10.0424C311.979 10.6568 311.827 11.329 311.827 12.0098C311.827 12.6906 311.979 13.3628 312.272 13.9771C312.542 14.5093 312.953 14.9566 313.461 15.2693C313.949 15.5634 314.507 15.7177 315.077 15.7151C315.648 15.7149 316.208 15.5537 316.692 15.2499Z" fill="white"/>
<path d="M322.429 16.4387C321.735 15.9537 321.203 15.2702 320.904 14.4778L322.39 13.8317C322.616 14.4061 323.005 14.9022 323.508 15.2595C323.969 15.5847 324.52 15.7586 325.084 15.757C325.64 15.7789 326.189 15.6338 326.661 15.3403C326.843 15.24 326.997 15.0941 327.106 14.9169C327.215 14.7397 327.277 14.5372 327.284 14.3292C327.289 14.1423 327.25 13.9569 327.169 13.7884C327.088 13.6198 326.968 13.473 326.819 13.36C326.337 13.0388 325.794 12.819 325.223 12.714L323.876 12.3909C323.179 12.2402 322.529 11.9208 321.983 11.4606C321.727 11.2417 321.523 10.9675 321.388 10.6587C321.252 10.3498 321.189 10.0144 321.202 9.67738C321.188 9.11007 321.373 8.55583 321.725 8.11061C322.095 7.66181 322.578 7.31954 323.124 7.11888C323.733 6.89497 324.378 6.78545 325.026 6.79584C325.834 6.78557 326.63 6.98717 327.336 7.38055C328.005 7.74417 328.527 8.3288 328.812 9.03452L327.326 9.68061C327.135 9.22781 326.793 8.85552 326.357 8.62749C325.911 8.40479 325.418 8.29392 324.92 8.30444C324.442 8.28443 323.967 8.39499 323.547 8.62425C323.364 8.71292 323.208 8.85018 323.098 9.02108C322.987 9.19198 322.926 9.38994 322.92 9.59338C322.914 9.7523 322.949 9.91012 323.02 10.0524C323.091 10.1946 323.197 10.3167 323.327 10.4075C323.724 10.6594 324.161 10.8409 324.619 10.9437L326.086 11.2991C326.905 11.4655 327.662 11.8532 328.276 12.42C328.509 12.652 328.694 12.9286 328.818 13.2333C328.942 13.5379 329.004 13.8645 329 14.1935C329.004 14.7487 328.831 15.2908 328.505 15.7409C328.149 16.2219 327.669 16.5979 327.116 16.8295C326.478 17.1032 325.789 17.2386 325.094 17.2269C324.144 17.2599 323.209 16.9833 322.429 16.4387Z" fill="white"/>
<path d="M52.1817 34.8221L55.0039 26.6743H56.4286L52.7652 36.5521H51.6118L47.9552 26.6743H49.3731L52.1817 34.8221ZM60.3092 36.6877C59.3142 36.6877 58.5046 36.3621 57.8805 35.7108C57.2563 35.055 56.9442 34.1799 56.9442 33.0853V32.8547C56.9442 32.1265 57.0822 31.4775 57.3581 30.9076C57.6385 30.3332 58.0274 29.8854 58.525 29.5643C59.027 29.2387 59.5697 29.0759 60.1532 29.0759C61.1075 29.0759 61.8492 29.3902 62.3784 30.0189C62.9076 30.6475 63.1721 31.5476 63.1721 32.719V33.2414H58.1993C58.2174 33.965 58.4277 34.5507 58.8302 34.9985C59.2373 35.4417 59.7529 35.6633 60.377 35.6633C60.8203 35.6633 61.1957 35.5729 61.5032 35.392C61.8108 35.2111 62.0799 34.9713 62.3105 34.6728L63.0772 35.2698C62.4621 36.2151 61.5394 36.6877 60.3092 36.6877ZM60.1532 30.1071C59.6466 30.1071 59.2215 30.2925 58.8777 30.6634C58.534 31.0297 58.3214 31.5453 58.24 32.2102H61.9171V32.1152C61.8809 31.4775 61.709 30.9845 61.4015 30.6362C61.0939 30.2835 60.6778 30.1071 60.1532 30.1071ZM65.9944 36.5521H64.7393V26.1315H65.9944V36.5521ZM69.3729 36.5521H68.1178V26.1315H69.3729V36.5521ZM71.0554 32.814C71.0554 32.0948 71.1956 31.4481 71.476 30.8737C71.7609 30.2993 72.1544 29.856 72.6565 29.544C73.163 29.2319 73.7397 29.0759 74.3864 29.0759C75.386 29.0759 76.1933 29.4219 76.8084 30.1138C77.428 30.8058 77.7378 31.7262 77.7378 32.875V32.9632C77.7378 33.6778 77.5999 34.3201 77.324 34.8899C77.0526 35.4553 76.6614 35.8963 76.1503 36.2129C75.6438 36.5294 75.0603 36.6877 74.4 36.6877C73.405 36.6877 72.5977 36.3418 71.978 35.6498C71.3629 34.9578 71.0554 34.0419 71.0554 32.9022V32.814ZM72.3173 32.9632C72.3173 33.7773 72.5049 34.4309 72.8803 34.9239C73.2603 35.4168 73.7668 35.6633 74.4 35.6633C75.0377 35.6633 75.5443 35.4146 75.9197 34.9171C76.2951 34.415 76.4828 33.714 76.4828 32.814C76.4828 32.0089 76.2905 31.3576 75.9061 30.8601C75.5262 30.3581 75.0196 30.1071 74.3864 30.1071C73.7668 30.1071 73.267 30.3536 72.8871 30.8465C72.5072 31.3395 72.3173 32.0451 72.3173 32.9632ZM82.8599 30.3377C82.67 30.3061 82.4642 30.2902 82.2426 30.2902C81.4194 30.2902 80.8608 30.6408 80.5669 31.3418V36.5521H79.3118V29.2115H80.5329L80.5533 30.0596C80.9649 29.4038 81.5483 29.0759 82.3036 29.0759C82.5478 29.0759 82.7333 29.1075 82.8599 29.1708V30.3377ZM86.9304 36.6877C85.9354 36.6877 85.1258 36.3621 84.5017 35.7108C83.8775 35.055 83.5655 34.1799 83.5655 33.0853V32.8547C83.5655 32.1265 83.7034 31.4775 83.9793 30.9076C84.2597 30.3332 84.6487 29.8854 85.1462 29.5643C85.6482 29.2387 86.191 29.0759 86.7744 29.0759C87.7287 29.0759 88.4705 29.3902 88.9996 30.0189C89.5288 30.6475 89.7934 31.5476 89.7934 32.719V33.2414H84.8206C84.8386 33.965 85.049 34.5507 85.4515 34.9985C85.8585 35.4417 86.3741 35.6633 86.9983 35.6633C87.4415 35.6633 87.8169 35.5729 88.1245 35.392C88.432 35.2111 88.7011 34.9713 88.9318 34.6728L89.6984 35.2698C89.0833 36.2151 88.1606 36.6877 86.9304 36.6877ZM86.7744 30.1071C86.2678 30.1071 85.8427 30.2925 85.499 30.6634C85.1552 31.0297 84.9427 31.5453 84.8613 32.2102H88.5383V32.1152C88.5021 31.4775 88.3302 30.9845 88.0227 30.6362C87.7151 30.2835 87.299 30.1071 86.7744 30.1071ZM96.2927 36.5521H94.9901V26.6743H96.2927V36.5521ZM99.6712 29.2115L99.7119 30.1342C100.273 29.4286 101.005 29.0759 101.91 29.0759C103.461 29.0759 104.244 29.951 104.257 31.7014V36.5521H103.002V31.6946C102.998 31.1654 102.876 30.7742 102.636 30.5209C102.401 30.2676 102.032 30.141 101.53 30.141C101.123 30.141 100.766 30.2495 100.458 30.4666C100.151 30.6837 99.9109 30.9687 99.739 31.3214V36.5521H98.484V29.2115H99.6712ZM110.424 34.605C110.424 34.2658 110.295 34.0035 110.037 33.818C109.784 33.6281 109.339 33.4652 108.701 33.3296C108.068 33.1939 107.563 33.0311 107.188 32.8411C106.817 32.6511 106.541 32.425 106.36 32.1627C106.184 31.9004 106.096 31.5883 106.096 31.2265C106.096 30.6249 106.349 30.1161 106.856 29.7C107.367 29.2839 108.018 29.0759 108.81 29.0759C109.642 29.0759 110.316 29.2907 110.831 29.7204C111.351 30.15 111.611 30.6996 111.611 31.3689H110.35C110.35 31.0252 110.203 30.7289 109.909 30.4802C109.619 30.2314 109.253 30.1071 108.81 30.1071C108.353 30.1071 107.995 30.2066 107.738 30.4056C107.48 30.6046 107.351 30.8646 107.351 31.1858C107.351 31.4888 107.471 31.7172 107.71 31.871C107.95 32.0247 108.382 32.1717 109.006 32.3119C109.635 32.4521 110.144 32.6195 110.533 32.814C110.922 33.0084 111.209 33.2436 111.394 33.5195C111.584 33.7909 111.679 34.1233 111.679 34.5168C111.679 35.1726 111.417 35.6995 110.892 36.0975C110.368 36.491 109.687 36.6877 108.85 36.6877C108.262 36.6877 107.742 36.5837 107.29 36.3757C106.838 36.1676 106.483 35.8782 106.225 35.5073C105.971 35.1319 105.845 34.7271 105.845 34.2929H107.1C107.123 34.7135 107.29 35.0482 107.602 35.297C107.919 35.5412 108.335 35.6633 108.85 35.6633C109.325 35.6633 109.705 35.5684 109.99 35.3784C110.279 35.1839 110.424 34.9261 110.424 34.605ZM115.017 27.4341V29.2115H116.387V30.1817H115.017V34.7339C115.017 35.0279 115.078 35.2495 115.2 35.3987C115.322 35.5435 115.53 35.6158 115.824 35.6158C115.969 35.6158 116.168 35.5887 116.421 35.5344V36.5521C116.091 36.6425 115.77 36.6877 115.458 36.6877C114.897 36.6877 114.474 36.5181 114.189 36.1789C113.904 35.8397 113.762 35.358 113.762 34.7339V30.1817H112.425V29.2115H113.762V27.4341H115.017ZM119.223 36.5521H117.968V29.2115H119.223V36.5521ZM117.866 27.2645C117.866 27.061 117.927 26.8891 118.05 26.7489C118.176 26.6087 118.362 26.5386 118.606 26.5386C118.85 26.5386 119.036 26.6087 119.162 26.7489C119.289 26.8891 119.352 27.061 119.352 27.2645C119.352 27.468 119.289 27.6376 119.162 27.7733C119.036 27.909 118.85 27.9768 118.606 27.9768C118.362 27.9768 118.176 27.909 118.05 27.7733C117.927 27.6376 117.866 27.468 117.866 27.2645ZM122.941 27.4341V29.2115H124.311V30.1817H122.941V34.7339C122.941 35.0279 123.002 35.2495 123.124 35.3987C123.246 35.5435 123.454 35.6158 123.748 35.6158C123.893 35.6158 124.092 35.5887 124.345 35.5344V36.5521C124.015 36.6425 123.694 36.6877 123.382 36.6877C122.821 36.6877 122.398 36.5181 122.113 36.1789C121.828 35.8397 121.686 35.358 121.686 34.7339V30.1817H120.349V29.2115H121.686V27.4341H122.941ZM130.315 35.8262C129.827 36.4005 129.11 36.6877 128.165 36.6877C127.382 36.6877 126.785 36.4616 126.374 36.0093C125.967 35.5525 125.761 34.8786 125.756 33.9876V29.2115H127.012V33.9537C127.012 35.0663 127.464 35.6226 128.368 35.6226C129.327 35.6226 129.965 35.2653 130.282 34.5507V29.2115H131.537V36.5521H130.343L130.315 35.8262ZM135.153 27.4341V29.2115H136.523V30.1817H135.153V34.7339C135.153 35.0279 135.214 35.2495 135.336 35.3987C135.458 35.5435 135.666 35.6158 135.96 35.6158C136.105 35.6158 136.304 35.5887 136.557 35.5344V36.5521C136.227 36.6425 135.906 36.6877 135.594 36.6877C135.033 36.6877 134.61 36.5181 134.325 36.1789C134.04 35.8397 133.898 35.358 133.898 34.7339V30.1817H132.561V29.2115H133.898V27.4341H135.153ZM141.041 36.6877C140.046 36.6877 139.237 36.3621 138.613 35.7108C137.988 35.055 137.676 34.1799 137.676 33.0853V32.8547C137.676 32.1265 137.814 31.4775 138.09 30.9076C138.371 30.3332 138.76 29.8854 139.257 29.5643C139.759 29.2387 140.302 29.0759 140.885 29.0759C141.84 29.0759 142.581 29.3902 143.11 30.0189C143.64 30.6475 143.904 31.5476 143.904 32.719V33.2414H138.931C138.95 33.965 139.16 34.5507 139.562 34.9985C139.969 35.4417 140.485 35.6633 141.109 35.6633C141.552 35.6633 141.928 35.5729 142.235 35.392C142.543 35.2111 142.812 34.9713 143.043 34.6728L143.809 35.2698C143.194 36.2151 142.272 36.6877 141.041 36.6877ZM140.885 30.1071C140.379 30.1071 139.954 30.2925 139.61 30.6634C139.266 31.0297 139.054 31.5453 138.972 32.2102H142.649V32.1152C142.613 31.4775 142.441 30.9845 142.134 30.6362C141.826 30.2835 141.41 30.1071 140.885 30.1071ZM148.477 32.814C148.477 32.0948 148.617 31.4481 148.897 30.8737C149.182 30.2993 149.576 29.856 150.078 29.544C150.584 29.2319 151.161 29.0759 151.808 29.0759C152.807 29.0759 153.615 29.4219 154.23 30.1138C154.849 30.8058 155.159 31.7262 155.159 32.875V32.9632C155.159 33.6778 155.021 34.3201 154.745 34.8899C154.474 35.4553 154.083 35.8963 153.572 36.2129C153.065 36.5294 152.482 36.6877 151.821 36.6877C150.826 36.6877 150.019 36.3418 149.399 35.6498C148.784 34.9578 148.477 34.0419 148.477 32.9022V32.814ZM149.739 32.9632C149.739 33.7773 149.926 34.4309 150.302 34.9239C150.682 35.4168 151.188 35.6633 151.821 35.6633C152.459 35.6633 152.966 35.4146 153.341 34.9171C153.716 34.415 153.904 33.714 153.904 32.814C153.904 32.0089 153.712 31.3576 153.328 30.8601C152.948 30.3581 152.441 30.1071 151.808 30.1071C151.188 30.1071 150.688 30.3536 150.309 30.8465C149.929 31.3395 149.739 32.0451 149.739 32.9632ZM157.351 36.5521V30.1817H156.19V29.2115H157.351V28.4585C157.351 27.6715 157.561 27.0632 157.981 26.6335C158.402 26.2039 158.997 25.989 159.766 25.989C160.055 25.989 160.342 26.0275 160.627 26.1044L160.559 27.122C160.347 27.0813 160.121 27.061 159.881 27.061C159.474 27.061 159.16 27.1808 158.938 27.4205C158.716 27.6557 158.606 27.9949 158.606 28.4381V29.2115H160.173V30.1817H158.606V36.5521H157.351ZM171.76 27.7462H168.585V36.5521H167.289V27.7462H164.121V26.6743H171.76V27.7462ZM175.397 36.6877C174.402 36.6877 173.592 36.3621 172.968 35.7108C172.344 35.055 172.032 34.1799 172.032 33.0853V32.8547C172.032 32.1265 172.17 31.4775 172.445 30.9076C172.726 30.3332 173.115 29.8854 173.612 29.5643C174.114 29.2387 174.657 29.0759 175.241 29.0759C176.195 29.0759 176.937 29.3902 177.466 30.0189C177.995 30.6475 178.259 31.5476 178.259 32.719V33.2414H173.287C173.305 33.965 173.515 34.5507 173.918 34.9985C174.325 35.4417 174.84 35.6633 175.464 35.6633C175.908 35.6633 176.283 35.5729 176.591 35.392C176.898 35.2111 177.167 34.9713 177.398 34.6728L178.164 35.2698C177.549 36.2151 176.627 36.6877 175.397 36.6877ZM175.241 30.1071C174.734 30.1071 174.309 30.2925 173.965 30.6634C173.621 31.0297 173.409 31.5453 173.327 32.2102H177.004V32.1152C176.968 31.4775 176.796 30.9845 176.489 30.6362C176.181 30.2835 175.765 30.1071 175.241 30.1071ZM182.662 35.6633C183.11 35.6633 183.501 35.5276 183.836 35.2563C184.171 34.9849 184.356 34.6457 184.392 34.2386H185.58C185.557 34.6593 185.412 35.0595 185.145 35.4395C184.879 35.8194 184.521 36.1224 184.074 36.3485C183.63 36.5747 183.16 36.6877 182.662 36.6877C181.663 36.6877 180.867 36.3553 180.274 35.6905C179.686 35.0211 179.392 34.1075 179.392 32.9496V32.7393C179.392 32.0247 179.524 31.3893 179.786 30.833C180.048 30.2767 180.424 29.8447 180.912 29.5372C181.405 29.2296 181.986 29.0759 182.656 29.0759C183.479 29.0759 184.162 29.3224 184.704 29.8153C185.252 30.3083 185.543 30.9483 185.58 31.7353H184.392C184.356 31.2604 184.175 30.8714 183.85 30.5684C183.529 30.2608 183.131 30.1071 182.656 30.1071C182.018 30.1071 181.523 30.3377 181.17 30.7991C180.822 31.2559 180.648 31.9184 180.648 32.7868V33.0243C180.648 33.87 180.822 34.5213 181.17 34.9781C181.518 35.4349 182.016 35.6633 182.662 35.6633ZM188.246 30.1003C188.802 29.4173 189.526 29.0759 190.417 29.0759C191.968 29.0759 192.751 29.951 192.764 31.7014V36.5521H191.509V31.6946C191.505 31.1654 191.382 30.7742 191.143 30.5209C190.908 30.2676 190.539 30.141 190.037 30.141C189.63 30.141 189.273 30.2495 188.965 30.4666C188.657 30.6837 188.418 30.9687 188.246 31.3214V36.5521H186.991V26.1315H188.246V30.1003ZM195.831 29.2115L195.871 30.1342C196.432 29.4286 197.165 29.0759 198.069 29.0759C199.621 29.0759 200.403 29.951 200.417 31.7014V36.5521H199.162V31.6946C199.157 31.1654 199.035 30.7742 198.795 30.5209C198.56 30.2676 198.191 30.141 197.689 30.141C197.282 30.141 196.925 30.2495 196.618 30.4666C196.31 30.6837 196.07 30.9687 195.898 31.3214V36.5521H194.643V29.2115H195.831ZM201.977 32.814C201.977 32.0948 202.117 31.4481 202.398 30.8737C202.683 30.2993 203.076 29.856 203.578 29.544C204.085 29.2319 204.661 29.0759 205.308 29.0759C206.308 29.0759 207.115 29.4219 207.73 30.1138C208.35 30.8058 208.66 31.7262 208.66 32.875V32.9632C208.66 33.6778 208.522 34.3201 208.246 34.8899C207.974 35.4553 207.583 35.8963 207.072 36.2129C206.565 36.5294 205.982 36.6877 205.322 36.6877C204.327 36.6877 203.519 36.3418 202.9 35.6498C202.285 34.9578 201.977 34.0419 201.977 32.9022V32.814ZM203.239 32.9632C203.239 33.7773 203.427 34.4309 203.802 34.9239C204.182 35.4168 204.688 35.6633 205.322 35.6633C205.959 35.6633 206.466 35.4146 206.841 34.9171C207.217 34.415 207.404 33.714 207.404 32.814C207.404 32.0089 207.212 31.3576 206.828 30.8601C206.448 30.3581 205.941 30.1071 205.308 30.1071C204.688 30.1071 204.189 30.3536 203.809 30.8465C203.429 31.3395 203.239 32.0451 203.239 32.9632ZM211.597 36.5521H210.342V26.1315H211.597V36.5521ZM213.28 32.814C213.28 32.0948 213.42 31.4481 213.7 30.8737C213.985 30.2993 214.379 29.856 214.881 29.544C215.387 29.2319 215.964 29.0759 216.611 29.0759C217.61 29.0759 218.417 29.4219 219.033 30.1138C219.652 30.8058 219.962 31.7262 219.962 32.875V32.9632C219.962 33.6778 219.824 34.3201 219.548 34.8899C219.277 35.4553 218.886 35.8963 218.375 36.2129C217.868 36.5294 217.285 36.6877 216.624 36.6877C215.629 36.6877 214.822 36.3418 214.202 35.6498C213.587 34.9578 213.28 34.0419 213.28 32.9022V32.814ZM214.541 32.9632C214.541 33.7773 214.729 34.4309 215.105 34.9239C215.484 35.4168 215.991 35.6633 216.624 35.6633C217.262 35.6633 217.768 35.4146 218.144 34.9171C218.519 34.415 218.707 33.714 218.707 32.814C218.707 32.0089 218.515 31.3576 218.13 30.8601C217.75 30.3581 217.244 30.1071 216.611 30.1071C215.991 30.1071 215.491 30.3536 215.111 30.8465C214.731 31.3395 214.541 32.0451 214.541 32.9632ZM221.237 32.8207C221.237 31.6765 221.502 30.7674 222.031 30.0935C222.56 29.4151 223.261 29.0759 224.134 29.0759C225.03 29.0759 225.729 29.3925 226.231 30.0257L226.292 29.2115H227.438V36.3757C227.438 37.3255 227.156 38.074 226.59 38.6212C226.029 39.1685 225.274 39.4421 224.324 39.4421C223.795 39.4421 223.277 39.3291 222.771 39.1029C222.264 38.8768 221.877 38.567 221.611 38.1735L222.262 37.4204C222.8 38.0853 223.458 38.4177 224.236 38.4177C224.847 38.4177 225.322 38.2459 225.661 37.9021C226.004 37.5584 226.176 37.0744 226.176 36.4503V35.8194C225.674 36.3983 224.989 36.6877 224.121 36.6877C223.261 36.6877 222.565 36.3418 222.031 35.6498C221.502 34.9578 221.237 34.0148 221.237 32.8207ZM222.499 32.9632C222.499 33.7909 222.669 34.4422 223.008 34.9171C223.347 35.3874 223.822 35.6226 224.433 35.6226C225.224 35.6226 225.805 35.2631 226.176 34.5439V31.1925C225.792 30.4915 225.215 30.141 224.446 30.141C223.836 30.141 223.359 30.3784 223.015 30.8533C222.671 31.3282 222.499 32.0315 222.499 32.9632ZM231.739 34.7135L233.449 29.2115H234.792L231.841 37.685C231.384 38.9062 230.658 39.5168 229.663 39.5168L229.426 39.4964L228.958 39.4082V38.3906L229.297 38.4177C229.722 38.4177 230.052 38.3318 230.288 38.1599C230.527 37.9881 230.724 37.6737 230.878 37.2169L231.156 36.4707L228.537 29.2115H229.908L231.739 34.7135Z" fill="white"/>
</svg>
