<svg width="641" height="136" viewBox="0 0 641 136" fill="none" xmlns="http://www.w3.org/2000/svg">
<path d="M8.10593 27.391H35.3509C41.7306 27.391 47.4723 28.3667 52.576 30.3181C57.6797 32.2696 62.0329 35.0466 65.6356 38.6492C69.2382 42.1768 71.9777 46.4174 73.8541 51.371C75.8055 56.3247 76.7812 61.7662 76.7812 67.6955C76.7812 73.6999 75.8055 79.1789 73.8541 84.1325C71.9777 89.0862 69.2382 93.3268 65.6356 96.8543C62.0329 100.382 57.6797 103.121 52.576 105.073C47.4723 107.024 41.7306 108 35.3509 108H8.10593V27.391ZM34.6754 93.5894C39.1036 93.5894 43.0065 92.989 46.384 91.7881C49.7614 90.5122 52.576 88.7484 54.8276 86.4968C57.0793 84.2451 58.768 81.5431 59.8938 78.3908C61.0197 75.1635 61.5826 71.5983 61.5826 67.6955C61.5826 63.7926 61.0197 60.2651 59.8938 57.1127C58.768 53.8854 57.0793 51.1459 54.8276 48.8942C52.576 46.6426 49.7614 44.9163 46.384 43.7154C43.0065 42.4395 39.1036 41.8015 34.6754 41.8015H23.3046V93.5894H34.6754ZM235.805 60.0399H236.705C238.432 57.2629 240.758 55.0863 243.686 53.5101C246.613 51.8589 249.953 51.0333 253.705 51.0333C257.158 51.0333 260.198 51.5962 262.825 52.722C265.451 53.8479 267.591 55.4615 269.242 57.5631C270.968 59.5896 272.244 62.0664 273.07 64.9935C273.97 67.8456 274.421 71.0354 274.421 74.563V108H259.672V76.3643C259.672 72.3864 258.772 69.4593 256.97 67.5829C255.244 65.6315 252.692 64.6558 249.315 64.6558C247.288 64.6558 245.487 65.1061 243.911 66.0068C242.41 66.8324 241.096 67.9957 239.97 69.4968C238.92 70.9229 238.094 72.6491 237.494 74.6756C236.968 76.627 236.705 78.7286 236.705 80.9802V108H221.957V52.8346H235.805V60.0399ZM416.186 100.795H415.285C413.559 103.572 411.232 105.786 408.305 107.437C405.378 109.013 402.038 109.801 398.285 109.801C391.305 109.801 386.089 107.662 382.636 103.384C379.259 99.106 377.57 93.4018 377.57 86.2716V52.8346H392.318V84.4703C392.318 88.4482 393.181 91.4129 394.907 93.3643C396.709 95.2407 399.298 96.1788 402.676 96.1788C404.702 96.1788 406.466 95.766 407.967 94.9404C409.543 94.0398 410.857 92.8764 411.907 91.4504C413.033 89.9493 413.859 88.223 414.384 86.2716C414.985 84.2451 415.285 82.106 415.285 79.8544V52.8346H430.033V108H416.186V100.795Z" fill="#4285F4"/>
<path d="M125.952 94.7153C123.4 99.2186 119.947 102.859 115.594 105.636C111.316 108.413 106.062 109.801 99.8325 109.801C95.6294 109.801 91.7265 109.088 88.1239 107.662C84.5963 106.161 81.5191 104.097 78.8921 101.47C76.2652 98.8433 74.2012 95.766 72.7001 92.2385C71.2741 88.6358 70.561 84.6954 70.561 80.4173C70.561 76.4394 71.2741 72.6866 72.7001 69.1591C74.1261 65.5564 76.1151 62.4416 78.667 59.8147C81.2188 57.1127 84.221 54.9737 87.6736 53.3975C91.2011 51.8214 95.0665 51.0333 99.2696 51.0333C103.698 51.0333 107.638 51.7838 111.091 53.2849C114.543 54.711 117.433 56.7375 119.76 59.3644C122.086 61.9163 123.85 64.956 125.051 68.4836C126.252 72.0112 126.852 75.839 126.852 79.967C126.852 80.4924 126.852 80.9427 126.852 81.318C126.777 81.7683 126.74 82.1811 126.74 82.5564C126.665 82.9316 126.627 83.3444 126.627 83.7948H85.0842C85.3844 86.0464 85.9848 87.9979 86.8855 89.6491C87.8612 91.2252 89.0246 92.5762 90.3755 93.702C91.8016 94.7528 93.3402 95.5409 94.9914 96.0663C96.6426 96.5166 98.3314 96.7418 100.058 96.7418C103.435 96.7418 106.212 95.9912 108.389 94.4901C110.64 92.914 112.404 90.9625 113.68 88.6358L125.952 94.7153ZM112.554 73.3246C112.479 72.3489 112.141 71.2606 111.541 70.0597C111.016 68.8588 110.19 67.733 109.064 66.6823C108.013 65.6315 106.662 64.7683 105.011 64.0929C103.435 63.4174 101.521 63.0796 99.2696 63.0796C96.1172 63.0796 93.3402 63.9803 90.9385 65.7816C88.5367 67.5829 86.848 70.0972 85.8722 73.3246H112.554ZM294.935 109.801C291.333 109.801 288.105 109.351 285.253 108.45C282.476 107.55 280.037 106.386 277.935 104.96C275.909 103.459 274.182 101.77 272.756 99.8941C271.33 97.9426 270.242 95.9912 269.492 94.0398L282.664 88.4107C283.94 91.2627 285.628 93.4018 287.73 94.8279C289.906 96.1788 292.308 96.8543 294.935 96.8543C297.637 96.8543 299.776 96.3665 301.352 95.3908C302.929 94.4151 303.717 93.2517 303.717 91.9007C303.717 90.3996 303.041 89.1987 301.69 88.2981C300.414 87.3224 298.163 86.4592 294.935 85.7087L287.167 84.0199C285.441 83.6447 283.639 83.0442 281.763 82.2186C279.962 81.393 278.31 80.3423 276.809 79.0663C275.308 77.7904 274.07 76.2518 273.094 74.4504C272.118 72.6491 271.631 70.5476 271.631 68.1458C271.631 65.4438 272.194 63.0421 273.319 60.9405C274.52 58.839 276.134 57.0752 278.16 55.6492C280.187 54.1481 282.551 53.0222 285.253 52.2717C288.03 51.4461 290.995 51.0333 294.147 51.0333C299.401 51.0333 304.092 52.0841 308.22 54.1856C312.348 56.2121 315.388 59.477 317.339 63.9803L304.617 69.1591C303.566 66.9825 302.028 65.4063 300.001 64.4306C297.975 63.4549 295.948 62.967 293.922 62.967C291.82 62.967 289.982 63.4174 288.405 64.318C286.829 65.1436 286.041 66.2319 286.041 67.5829C286.041 68.8588 286.679 69.8721 287.955 70.6226C289.306 71.3732 291.107 72.0487 293.359 72.6491L301.803 74.6756C307.432 76.0266 311.597 78.2032 314.299 81.2054C317.076 84.1325 318.465 87.6226 318.465 91.6755C318.465 94.0773 317.902 96.3665 316.776 98.5431C315.65 100.72 314.037 102.671 311.935 104.397C309.909 106.049 307.432 107.362 304.505 108.338C301.653 109.313 298.463 109.801 294.935 109.801ZM501.435 95.053C497.457 99.8565 492.766 103.534 487.362 106.086C481.958 108.563 475.916 109.801 469.236 109.801C463.232 109.801 457.641 108.713 452.462 106.536C447.358 104.36 442.93 101.395 439.177 97.6424C435.424 93.8897 432.46 89.4614 430.283 84.3577C428.106 79.1789 427.018 73.6248 427.018 67.6955C427.018 61.7662 428.106 56.2496 430.283 51.1459C432.46 45.9671 435.424 41.5013 439.177 37.7486C442.93 33.9958 447.358 31.0311 452.462 28.8546C457.641 26.678 463.232 25.5897 469.236 25.5897C475.691 25.5897 481.358 26.7155 486.236 28.9671C491.19 31.2188 495.581 34.4837 499.409 38.7618L488.713 49.1194C486.312 46.3424 483.534 44.1282 480.382 42.477C477.305 40.8258 473.627 40.0002 469.349 40.0002C465.596 40.0002 462.069 40.6757 458.766 42.0267C455.464 43.3026 452.574 45.1415 450.097 47.5432C447.696 49.945 445.782 52.8721 444.356 56.3247C442.93 59.7021 442.217 63.4924 442.217 67.6955C442.217 71.8986 442.93 75.7264 444.356 79.1789C445.782 82.5564 447.696 85.446 450.097 87.8477C452.574 90.2495 455.464 92.1259 458.766 93.4769C462.069 94.7528 465.596 95.3908 469.349 95.3908C473.852 95.3908 477.83 94.4901 481.283 92.6888C484.81 90.8124 487.925 88.1855 490.627 84.808L501.435 95.053Z" fill="#EA4335"/>
<path d="M175.112 93.9272C172.711 98.5806 169.333 102.408 164.98 105.411C160.702 108.338 155.335 109.801 148.881 109.801C144.602 109.801 140.662 109.088 137.059 107.662C133.532 106.161 130.455 104.097 127.828 101.47C125.276 98.8433 123.249 95.766 121.748 92.2385C120.322 88.6358 119.609 84.6954 119.609 80.4173C119.609 76.1392 120.322 72.1988 121.748 68.5962C123.249 64.9935 125.276 61.9163 127.828 59.3644C130.455 56.7375 133.532 54.711 137.059 53.2849C140.662 51.7838 144.602 51.0333 148.881 51.0333C155.26 51.0333 160.627 52.4969 164.98 55.424C169.333 58.3511 172.523 62.1414 174.549 66.7948L161.039 72.424C159.764 69.8721 158.112 67.9582 156.086 66.6823C154.134 65.3313 151.658 64.6558 148.655 64.6558C146.704 64.6558 144.865 65.031 143.139 65.7816C141.413 66.5321 139.874 67.5829 138.523 68.9339C137.247 70.2849 136.234 71.9361 135.483 73.8875C134.733 75.839 134.357 78.0155 134.357 80.4173C134.357 82.8191 134.733 84.9957 135.483 86.9471C136.234 88.8985 137.247 90.5497 138.523 91.9007C139.874 93.2517 141.413 94.3025 143.139 95.053C144.865 95.8036 146.704 96.1788 148.655 96.1788C151.733 96.1788 154.322 95.5034 156.424 94.1524C158.6 92.7263 160.326 90.6998 161.602 88.0729L175.112 93.9272ZM320.086 65.4438H310.404V52.8346H320.086V35.9472H334.834V52.8346H348.344V65.4438H334.834V86.8345C334.834 88.1104 334.947 89.3113 335.172 90.4371C335.472 91.4879 335.998 92.3886 336.748 93.1391C337.799 94.34 339.3 94.9404 341.251 94.9404C342.527 94.9404 343.541 94.8279 344.291 94.6027C345.042 94.3025 345.755 93.9272 346.43 93.4769L350.596 106.424C348.869 107.249 346.993 107.85 344.967 108.225C343.015 108.675 340.839 108.901 338.437 108.901C335.66 108.901 333.145 108.488 330.894 107.662C328.717 106.762 326.878 105.561 325.377 104.06C321.85 100.682 320.086 95.8786 320.086 89.6491V65.4438ZM517.239 108V41.8015H494.722V27.391H554.954V41.8015H532.437V108H517.239Z" fill="#FBBC05"/>
<path d="M196.719 51.0333C200.997 51.0333 204.9 51.7838 208.428 53.2849C212.031 54.711 215.108 56.7375 217.66 59.3644C220.287 61.9163 222.313 64.9935 223.739 68.5962C225.24 72.1988 225.991 76.1392 225.991 80.4173C225.991 84.6954 225.24 88.6358 223.739 92.2385C222.313 95.8411 220.287 98.9559 217.66 101.583C215.108 104.135 212.031 106.161 208.428 107.662C204.9 109.088 200.997 109.801 196.719 109.801C192.441 109.801 188.501 109.088 184.898 107.662C181.371 106.161 178.293 104.135 175.666 101.583C173.115 98.9559 171.088 95.8411 169.587 92.2385C168.161 88.6358 167.448 84.6954 167.448 80.4173C167.448 76.1392 168.161 72.1988 169.587 68.5962C171.088 64.9935 173.115 61.9163 175.666 59.3644C178.293 56.7375 181.371 54.711 184.898 53.2849C188.501 51.7838 192.441 51.0333 196.719 51.0333ZM196.719 96.1788C198.596 96.1788 200.397 95.8411 202.123 95.1656C203.925 94.4151 205.501 93.3643 206.852 92.0133C208.203 90.6623 209.253 89.0111 210.004 87.0597C210.83 85.1082 211.242 82.8941 211.242 80.4173C211.242 77.9405 210.83 75.7264 210.004 73.7749C209.253 71.8235 208.203 70.1723 206.852 68.8213C205.501 67.4703 203.925 66.4571 202.123 65.7816C200.397 65.031 198.596 64.6558 196.719 64.6558C194.768 64.6558 192.929 65.031 191.203 65.7816C189.477 66.4571 187.938 67.4703 186.587 68.8213C185.236 70.1723 184.148 71.8235 183.322 73.7749C182.571 75.7264 182.196 77.9405 182.196 80.4173C182.196 82.8941 182.571 85.1082 183.322 87.0597C184.148 89.0111 185.236 90.6623 186.587 92.0133C187.938 93.3643 189.477 94.4151 191.203 95.1656C192.929 95.8411 194.768 96.1788 196.719 96.1788ZM345.683 52.8346H359.531V60.4902H360.432C361.107 59.1392 362.008 57.9008 363.134 56.775C364.26 55.6492 365.498 54.6735 366.849 53.8479C368.275 53.0222 369.776 52.3843 371.352 51.934C373.003 51.4836 374.617 51.2585 376.193 51.2585C378.145 51.2585 379.796 51.4461 381.147 51.8214C382.573 52.1966 383.774 52.6845 384.75 53.2849L380.809 66.6823C379.908 66.2319 378.895 65.8942 377.769 65.669C376.719 65.3688 375.405 65.2187 373.829 65.2187C371.803 65.2187 369.964 65.6315 368.312 66.4571C366.661 67.2076 365.235 68.2959 364.034 69.722C362.909 71.148 362.008 72.8368 361.332 74.7882C360.732 76.6646 360.432 78.7286 360.432 80.9802V108H345.683V52.8346ZM559.346 108.675C556.644 108.675 554.317 107.737 552.365 105.861C550.489 103.91 549.551 101.583 549.551 98.8808C549.551 96.1788 550.489 93.8897 552.365 92.0133C554.317 90.1369 556.644 89.1987 559.346 89.1987C562.048 89.1987 564.337 90.1369 566.213 92.0133C568.089 93.8897 569.028 96.1788 569.028 98.8808C569.028 101.583 568.089 103.91 566.213 105.861C564.337 107.737 562.048 108.675 559.346 108.675Z" fill="#34A853"/>
<path d="M601.246 76.8148C597.128 73.1761 590.704 73.2772 588.008 73.7825V24.8168C592.715 22.9974 598.795 25.5749 601.246 27.091V31.6394C602.717 33.6609 608.454 36.491 619.634 31.6394C630.813 26.7877 638.511 29.6179 640.963 31.6394V80.6051C637.531 78.3309 628.46 75.147 619.634 80.6051C610.808 86.0631 603.698 82.8793 601.246 80.6051V76.8148Z" fill="#4285F4"/>
<path d="M578 25.9467L590.593 23.9258V108.296H578V25.9467Z" fill="#4285F4"/>
<path d="M601.296 46.8552C590.718 41.8182 586.395 44.7565 585.555 46.8552V58.8182C586.395 56.7195 590.718 53.7812 601.296 58.8182V63.2256C602.975 65.3244 609.104 68.2627 620.185 63.2256C631.267 58.1886 638.654 61.1269 640.963 63.2256V51.2627C638.654 49.1639 631.267 46.2256 620.185 51.2627C609.104 56.2997 602.975 53.3614 601.296 51.2627V46.8552Z" fill="white"/>
</svg>
